<svg width="22" height="30" viewBox="0 0 22 30" fill="none" xmlns="http://www.w3.org/2000/svg">
<path d="M14.6082 13.8463V13.78C18.232 13.1875 20.0445 11.3863 20.0445 8.37751C20.0445 6.4225 19.2807 5.03375 17.7545 4.21C16.5945 3.58375 14.9919 3.19625 12.9494 3.045V0H10.7444V2.975H8.60438V0H6.39935V2.975H1.03429L1.04804 5.5775H3.92183C4.36933 5.57875 4.73183 5.9425 4.73183 6.39V22.0063C4.73183 22.4538 4.36933 22.8175 3.92058 22.8175H1.03304L0.805542 26.0375H6.39685V29.055H8.60188V26.0375H10.7181C10.7256 26.0375 10.7344 26.0375 10.7419 26.0375V29.055H12.9469V25.96C15.2607 25.79 17.1107 25.3388 18.4932 24.605C20.2945 23.65 21.1945 21.975 21.1945 19.58C21.1945 16.3075 18.9982 14.3963 14.6057 13.8475L14.6082 13.8463ZM8.63688 5.57625C11.3769 5.57625 15.9645 5.57625 15.9645 8.88375C15.9645 12.1913 11.3757 12.1913 8.63688 12.1913V5.57625ZM8.63688 22.6V15.725C11.8494 15.725 17.2295 15.725 17.2295 19.1625C17.2295 22.6 11.8494 22.6 8.63688 22.6Z" fill="#F99545"/>
</svg>
