<svg width="44" height="44" viewBox="0 0 44 44" fill="none" xmlns="http://www.w3.org/2000/svg">
<rect y="0.263763" width="44" height="43" rx="8" fill="#E4EDF1"/>
<path d="M17 13.7638C17 13.2115 16.5523 12.7638 16 12.7638C15.4477 12.7638 15 13.2115 15 13.7638V27.3496L11.7071 24.0567C11.3166 23.6661 10.6834 23.6661 10.2929 24.0567C9.90237 24.4472 9.90237 25.0803 10.2929 25.4709L15.2929 30.4709C15.6834 30.8614 16.3166 30.8614 16.7071 30.4709L21.7071 25.4709C22.0976 25.0803 22.0976 24.4472 21.7071 24.0567C21.3166 23.6661 20.6834 23.6661 20.2929 24.0567L17 27.3496V13.7638Z" fill="#020E21"/>
<path d="M23.7071 19.4709C23.3166 19.8614 22.6834 19.8614 22.2929 19.4709C21.9024 19.0803 21.9024 18.4472 22.2929 18.0567L27.2929 13.0567C27.6834 12.6661 28.3166 12.6661 28.7071 13.0567L33.7071 18.0567C34.0976 18.4472 34.0976 19.0803 33.7071 19.4709C33.3166 19.8614 32.6834 19.8614 32.2929 19.4709L29 16.178V29.7638C29 30.316 28.5523 30.7638 28 30.7638C27.4477 30.7638 27 30.316 27 29.7638V16.178L23.7071 19.4709Z" fill="#020E21"/>
</svg>
