<svg width="17" height="18" viewBox="0 0 17 18" fill="none" xmlns="http://www.w3.org/2000/svg">
<path d="M7.56215 3.03451C7.88431 2.16389 9.11569 2.16389 9.43785 3.03451L10.6362 6.27299C10.7375 6.54671 10.9533 6.76252 11.227 6.8638L14.4655 8.06215C15.3361 8.38431 15.3361 9.61569 14.4655 9.93785L11.227 11.1362C10.9533 11.2375 10.7375 11.4533 10.6362 11.727L9.43785 14.9655C9.11569 15.8361 7.88431 15.8361 7.56215 14.9655L6.3638 11.727C6.26252 11.4533 6.04671 11.2375 5.77299 11.1362L2.53451 9.93785C1.66389 9.61569 1.66389 8.38431 2.53451 8.06215L5.77299 6.8638C6.04671 6.76252 6.26252 6.54671 6.3638 6.27299L7.56215 3.03451Z" fill="url(#paint0_linear_80_1210)"/>
<defs>
<linearGradient id="paint0_linear_80_1210" x1="2.83333" y1="3.82608" x2="27.6934" y2="8.74185" gradientUnits="userSpaceOnUse">
<stop stop-color="white"/>
<stop offset="1" stop-color="white"/>
</linearGradient>
</defs>
</svg>
