<svg width="22" height="30" viewBox="0 0 22 30" fill="none" xmlns="http://www.w3.org/2000/svg">
<path d="M10.8871 14.3003C10.6586 13.9451 10.3181 13.748 9.91673 13.8271C9.51626 13.9061 9.26259 14.1552 9.09406 14.7205C8.92554 15.2858 9.17833 15.641 9.17833 15.641C9.17833 15.641 9.30516 15.8511 9.76905 15.8511C10.2772 15.8511 10.6994 15.707 10.9713 15.3778C11.2432 15.0486 11.1155 14.6544 10.8871 14.3003ZM10.0853 14.8786C9.80553 14.8786 9.5788 14.6847 9.5788 14.4443C9.5788 14.2039 9.80553 14.0101 10.0853 14.0101C10.365 14.0101 10.5917 14.2039 10.5917 14.4443C10.5917 14.6847 10.365 14.8786 10.0853 14.8786Z" fill="#FD3A7C"/>
<path d="M8.44084 6.93847C8.44084 6.93847 8.35571 8.06365 8.59026 8.94299C8.84132 9.88298 9.28349 10.7699 9.7274 11.1977C10.1913 11.6449 10.3841 11.724 10.6343 11.776C10.8871 11.829 11.2528 11.9341 11.0565 11.5659C10.8454 11.1717 10.7612 11.1977 10.4658 10.3302C10.074 9.18016 10.2825 8.72315 9.95934 8.06906C9.62228 7.38572 8.9473 6.83343 8.44084 6.93847Z" fill="#FD3A7C"/>
<path d="M10.3459 22.0054C10.3303 22.0108 10.3207 21.9848 10.3329 21.9729C10.4511 21.8625 10.782 21.608 11.1252 21.4509C11.6212 21.2235 12.2163 21.0567 12.6802 20.9777C13.2222 20.8856 13.7591 20.812 14.2629 20.5261C14.858 20.1882 15.3506 19.584 15.4861 18.7652C15.4991 18.6851 15.5087 18.6039 15.5147 18.5216C15.5365 18.2119 15.5034 17.9011 15.4565 17.5968C15.4348 17.4538 15.4096 17.3119 15.3801 17.1712C15.3645 17.0986 15.3488 17.0271 15.3306 16.9557C15.3245 16.9297 15.3175 16.8842 15.308 16.8409C15.3036 16.8203 15.3245 16.8062 15.3358 16.8214C15.5938 17.1582 15.7745 17.6249 15.8535 18.0689C15.9057 18.3635 15.8996 18.671 15.8709 18.9678C15.7927 19.7875 15.4044 20.499 14.8623 20.9604C14.4071 21.3481 13.8963 21.4899 13.3543 21.5289C12.6159 21.582 11.9835 21.5549 11.4353 21.687C10.9983 21.7921 10.5206 21.9469 10.3451 22.0054H10.3459Z" fill="#FD3A7C"/>
<path d="M16.4556 17.4549C16.4556 17.4549 16.0212 18.6743 16.519 19.807C17.0671 21.0557 17.1097 21.0903 17.7221 22.2664C18.3346 23.4425 18.656 23.9125 18.7064 24.8676C18.7568 25.8228 18.5248 26.7314 18.3772 26.9458C18.3772 26.9458 19.4865 26.1303 19.9182 25.3419C20.3787 24.5005 20.6254 22.9162 20.462 22.0574C20.2987 21.1986 19.8566 20.2381 19.3388 19.6489C18.8211 19.0598 17.8064 18.4339 17.3208 18.0863C16.8352 17.7386 16.4564 17.4549 16.4564 17.4549H16.4556Z" fill="#FD3A7C"/>
<path d="M13.9032 12.5914C13.9032 12.5914 13.5635 14.7367 15.1689 15.9041C16.9402 17.1928 16.9193 16.9297 18.1851 17.613C19.4508 18.2963 19.6401 18.4284 19.9563 18.8486C20.2726 19.2688 20.7999 19.9002 20.673 20.7416C20.673 20.7416 21.1161 20.0583 21.1795 18.9797C21.2429 17.9021 21.1161 16.7445 20.6105 16.0611C20.104 15.3778 19.8512 14.7205 18.2485 14.1422C17.3693 13.8249 17.2781 13.9841 16.1818 13.722C15.0855 13.4588 14.9378 13.4328 13.9041 12.5914H13.9032Z" fill="#FD3A7C"/>
<path d="M16.3584 8.39503C16.3584 8.39503 17.2619 8.82387 17.6936 9.36101C17.9951 9.73679 17.9951 10.2469 18.0168 10.8912C18.035 11.4283 17.9004 12.2113 17.8708 12.3239C17.8708 12.3272 17.8734 12.3293 17.8752 12.3261C17.9221 12.2449 18.1236 11.8258 18.1896 11.3742C18.2418 11.0168 18.2409 10.7212 18.2539 10.0855C18.2565 9.94147 18.3182 9.91873 18.4051 9.91981C18.5988 9.92414 19.1583 10.5685 19.3954 10.8371C19.5283 10.9876 19.6812 11.1208 19.7898 11.2096C19.808 11.2248 19.828 11.1933 19.8124 11.1739L19.2443 10.4884C18.8351 10.0054 18.7326 9.80935 18.5771 9.60251C18.3521 9.30253 18.2687 9.15959 18.1992 8.99173C18.1731 8.92784 18.0889 8.69717 18.0298 8.37337C18.0046 8.23476 17.9924 8.06907 17.9959 7.80483C18.0029 7.1908 18.1896 6.59735 18.1896 6.59735C18.1896 6.59735 18.0602 6.6515 17.9099 7.18755C17.7588 7.72469 17.7805 8.52931 17.7805 8.52931C17.7805 8.52931 17.8126 8.91809 17.6728 8.82496C17.4069 8.64627 16.2733 8.26075 16.2733 8.26075L15.964 8.21201C15.9553 8.21201 15.9536 8.22609 15.9614 8.22934L16.3601 8.39503H16.3584Z" fill="#FD3A7C"/>
<path d="M19.1753 11.9341C19.0102 11.6926 18.8148 11.4056 18.5915 11.1067C18.5828 11.163 18.5733 11.2204 18.5637 11.2767C18.5238 11.5204 18.4699 11.7868 18.3874 12.0131C18.3101 12.2232 18.2154 12.4755 18.0668 12.6228C17.9261 12.7625 17.7133 12.7874 17.5595 12.664C17.391 12.5297 17.3832 12.3023 17.4987 12.0326C17.5995 11.7965 17.6629 11.4673 17.6785 11.1988C17.7098 10.6681 17.669 10.3021 17.5856 9.95121C17.2155 9.60034 16.8081 9.30036 16.3711 9.12276C15.148 8.62353 14.4938 8.54447 13.6086 8.59645C12.7616 8.64627 12.4385 8.76756 12.4385 8.76756C12.4385 8.76756 11.5168 7.38031 10.6568 6.83559C9.90273 6.35802 8.90198 6.0797 8.54059 6.26272C8.53104 6.26705 8.53365 6.28546 8.54407 6.28546C8.70652 6.29845 9.35197 6.37209 9.91836 6.78253C10.642 7.30559 11.1623 7.76475 11.7114 8.65385C12.2595 9.54294 13.3776 11.2258 13.3776 11.2258C13.3776 11.2258 13.6729 11.7251 14.2419 12.0933C14.8109 12.4615 15.5493 12.6716 16.4988 12.8026C17.4474 12.9336 18.1615 12.8394 18.7766 13.1708C19.369 13.4903 19.6939 13.9418 19.852 14.3014C19.8668 14.3349 19.9154 14.3274 19.9154 14.2483C19.9154 13.6787 19.5975 12.5524 19.177 11.9352L19.1753 11.9341Z" fill="#FD3A7C"/>
<path d="M15.0591 29.0023C14.7672 28.9168 14.491 28.7413 14.2755 28.4988C14.0749 28.2724 13.9107 27.9952 13.7882 27.6941C13.5771 27.1765 13.3895 26.6437 13.1879 26.1195C12.9898 25.6041 12.7171 25.1666 12.3227 24.859C11.9274 24.5504 11.5061 24.4421 11.0518 24.5937C10.5792 24.7518 10.2465 25.3572 10.3472 25.9658C10.4498 26.5863 11.0544 27.0758 11.5539 26.9058C11.963 26.7661 12.2045 26.1878 12.0621 25.6896C11.937 25.251 11.3932 25.0247 11.0865 25.2824C10.9171 25.4243 10.8381 25.7048 10.9293 25.9398C10.9432 25.9744 11.0683 26.2018 10.9623 26.112C10.8815 26.0437 10.8311 25.9095 10.8155 25.7925C10.7825 25.5402 10.8858 25.2716 11.0535 25.1297C11.3402 24.8872 11.7728 24.9316 12.0821 25.2283C12.3722 25.5066 12.4096 25.891 12.3844 26.3036C12.3357 27.1018 11.6573 27.7006 10.9032 27.4494C10.5757 27.34 10.309 27.1223 10.0736 26.8321C9.84339 26.5484 9.6184 26.2365 9.37343 25.9679C9.14409 25.7167 8.88521 25.5077 8.60723 25.3517C8.37615 25.2218 8.1277 25.1427 7.87925 25.0778C7.73505 25.0409 7.5891 25.0117 7.44316 24.9846C7.40494 24.9781 7.1339 24.9684 7.21208 24.8698C7.41797 24.6067 7.6751 24.3728 7.91574 24.1583C8.16332 23.9374 8.42306 23.7371 8.69236 23.5616C9.13366 23.2736 9.60016 23.0505 10.0814 22.8924C10.7312 22.678 11.4349 22.639 12.089 22.8469C12.6658 23.0299 13.2053 23.3949 13.584 23.9764C13.9776 24.5807 14.1148 25.3539 14.2217 26.1022C14.2903 26.5885 14.3381 27.0877 14.4666 27.5566C14.6734 28.3114 15.0608 28.6255 15.7011 28.6298C15.8931 28.6309 16.0842 28.5962 16.2701 28.5388C16.4178 28.4933 16.5568 28.4121 16.7062 28.3731C16.7505 28.3612 16.8556 28.332 16.7956 28.4154C16.7687 28.4533 16.7218 28.4717 16.6879 28.4988C16.628 28.5475 16.5663 28.5951 16.5038 28.6406C16.0616 28.9612 15.5716 29.1529 15.0591 29.0034V29.0023Z" fill="#FD3A7C"/>
<path d="M0.868732 0.00117919C0.952997 0.124634 1.03379 0.252423 1.12066 0.371546C1.56109 0.971494 5.79343 6.75656 6.40326 7.59259C6.71078 8.01493 7.02178 8.43511 7.32843 8.85854C7.90265 9.65234 8.4673 10.457 9.04673 11.2443C9.14229 11.3764 9.25261 11.5172 9.30474 11.6374C9.41072 11.8778 9.31603 12.2037 9.23524 12.4485C9.15358 12.6965 9.0033 12.9412 8.83998 13.1156C8.52725 13.4491 8.1259 13.6408 7.72804 13.7469C7.50565 13.8065 7.26762 13.813 7.06 13.9408C6.6187 14.2126 6.65605 14.9479 6.61522 15.4634C6.52662 16.5788 6.08705 17.5188 5.78387 18.5508C5.62229 19.101 5.66312 19.6879 5.93242 20.1742C6.08271 20.4449 6.29033 20.6388 6.49274 20.8467C6.80721 21.1705 7.15295 21.464 7.43094 21.8376C7.77234 22.2848 7.73151 23.1003 7.49957 23.6049C7.3458 23.9396 7.10517 24.1984 6.84977 24.4182C6.49534 24.7236 6.09921 24.9467 5.69266 25.12C5.49025 25.2066 5.28523 25.2802 5.07848 25.3474C4.97597 25.3809 4.8726 25.4113 4.76922 25.4416C4.68843 25.4654 4.61372 25.5001 4.52859 25.499C4.50687 25.499 4.48342 25.4968 4.46344 25.4849C4.39568 25.4448 4.37744 25.2986 4.35398 25.2185C4.17416 24.5991 3.81451 24.1009 3.58518 23.514C3.23596 22.6216 3.0709 21.5008 3.3263 20.538C3.44792 20.08 3.65554 19.6814 3.89617 19.2992C4.32358 18.6223 4.77791 17.965 5.1141 17.208C5.37384 16.6232 5.54585 15.9897 5.62229 15.3291C5.68223 14.8104 5.73522 14.2906 5.89941 13.8C5.97759 13.5661 6.11311 13.3777 6.2382 13.1827C6.36069 12.9921 6.52748 12.7571 6.41803 12.5005C6.17044 11.9168 5.93155 11.3276 5.67876 10.7472C5.1002 9.41951 4.49992 8.10806 3.91268 6.78688C3.90139 6.76089 3.89009 6.7349 3.8788 6.70891C3.86142 6.66992 3.85361 6.61361 3.85448 6.56921C3.85621 6.56596 3.85969 6.56379 3.86316 6.56379C3.8814 6.5887 3.90312 6.61794 3.91876 6.64718C4.56768 7.88281 5.21487 9.13794 5.86466 10.3801C6.13657 10.8999 6.41021 11.4186 6.68646 11.9341C6.88713 12.3088 7.10344 12.7008 7.49522 12.742C7.83315 12.7766 8.84432 12.4279 8.47339 11.7825C8.35437 11.5756 8.22233 11.3807 8.09463 11.1825C7.77147 10.68 7.44831 10.1776 7.12255 9.67724C6.48579 8.69935 5.84381 7.72687 5.20531 6.75114C4.48342 5.64871 3.765 4.54194 3.03963 3.44276C2.60788 2.78542 2.17092 2.13457 1.73831 1.47831C1.44121 1.02781 0.822691 0.0921474 0.807923 0.0769863C0.798367 0.0152587 0.817479 -0.00964809 0.866995 0.00334718L0.868732 0.00117919ZM4.33834 21.0947C4.2758 21.0968 4.21064 21.1185 4.1481 21.164C4.04472 21.2387 4.05254 21.3784 4.15765 21.452C4.39568 21.6188 4.10292 21.8387 4.15678 22.0715C4.19675 22.2426 4.36875 22.3108 4.49471 22.2643C4.98032 22.0867 4.85001 21.0784 4.33921 21.0958L4.33834 21.0947Z" fill="#FD3A7C"/>
</svg>
