<svg width="152" height="35" viewBox="0 0 152 35" fill="none" xmlns="http://www.w3.org/2000/svg">
<path fill-rule="evenodd" clip-rule="evenodd" d="M28 17.5C28 25.232 21.732 31.5 14 31.5C6.26801 31.5 0 25.232 0 17.5C0 9.76801 6.26801 3.5 14 3.5C21.732 3.5 28 9.76801 28 17.5ZM15.1667 28.9253C18.8557 28.5531 22.0293 26.4349 23.8485 23.4098L21.681 22.399L15.1667 26.1601V28.9253ZM24.8409 21.298L22.0835 20.0122V14.4068L24.4914 12.823C25.1292 14.2516 25.4838 15.8344 25.4838 17.5C25.4838 18.831 25.2574 20.1092 24.8409 21.298ZM5.98244 22.2041L5.91764 22.1667V15.0485L3.14109 13.7538C2.73609 14.9279 2.51616 16.1883 2.51616 17.5C2.51616 19.6609 3.11303 21.6825 4.15089 23.4087L5.98244 22.2041ZM5.55263 25.2796C7.40377 27.2886 9.96248 28.6356 12.8333 28.9253V26.1594L8.24368 23.5096L5.55263 25.2796ZM21.0962 12.2634L15.1667 8.83993V6.0747C18.5241 6.41344 21.4545 8.19836 23.3257 10.797L21.0962 12.2634ZM12.8333 8.84056L6.262 12.6345L4.12338 11.6373C5.93788 8.58704 9.12523 6.44883 12.8333 6.0747V8.84056Z" fill="url(#paint0_linear_106_587)"/>
<path d="M41.88 17.6C41.88 18.544 42.088 19.352 42.504 20.024C42.936 20.68 43.504 21.184 44.208 21.536C44.912 21.872 45.688 22.04 46.536 22.04C47.336 22.04 48.032 21.936 48.624 21.728C49.216 21.52 49.744 21.256 50.208 20.936C50.672 20.6 51.08 20.248 51.432 19.88V24.776C50.776 25.256 50.048 25.656 49.248 25.976C48.464 26.28 47.456 26.432 46.224 26.432C44.832 26.432 43.552 26.224 42.384 25.808C41.216 25.392 40.216 24.792 39.384 24.008C38.552 23.224 37.904 22.296 37.44 21.224C36.992 20.136 36.768 18.928 36.768 17.6C36.768 16.272 36.992 15.072 37.44 14C37.904 12.912 38.552 11.976 39.384 11.192C40.216 10.408 41.216 9.808 42.384 9.392C43.552 8.976 44.832 8.768 46.224 8.768C47.456 8.768 48.464 8.92 49.248 9.224C50.048 9.528 50.776 9.928 51.432 10.424V15.32C51.08 14.952 50.672 14.608 50.208 14.288C49.744 13.952 49.216 13.68 48.624 13.472C48.032 13.264 47.336 13.16 46.536 13.16C45.688 13.16 44.912 13.336 44.208 13.688C43.504 14.024 42.936 14.528 42.504 15.2C42.088 15.856 41.88 16.656 41.88 17.6ZM59.2099 18.584H63.9859L69.0259 26H63.6019L59.2099 18.584ZM54.6499 9.2H59.3059V26H54.6499V9.2ZM57.6259 13.136V9.2H61.2499C62.7859 9.2 64.0499 9.44 65.0419 9.92C66.0499 10.4 66.7939 11.064 67.2739 11.912C67.7699 12.744 68.0179 13.712 68.0179 14.816C68.0179 15.904 67.7699 16.88 67.2739 17.744C66.7939 18.592 66.0499 19.256 65.0419 19.736C64.0499 20.2 62.7859 20.432 61.2499 20.432H57.6259V16.904H60.8659C61.3619 16.904 61.7779 16.832 62.1139 16.688C62.4499 16.544 62.7059 16.328 62.8819 16.04C63.0739 15.752 63.1699 15.408 63.1699 15.008C63.1699 14.608 63.0739 14.272 62.8819 14C62.7059 13.712 62.4499 13.496 62.1139 13.352C61.7779 13.208 61.3619 13.136 60.8659 13.136H57.6259ZM70.7983 9.2H75.4543V26H70.7983V9.2ZM73.7743 12.968V9.2H77.0143C78.5503 9.2 79.8143 9.432 80.8063 9.896C81.8143 10.344 82.5583 10.984 83.0383 11.816C83.5343 12.648 83.7823 13.648 83.7823 14.816C83.7823 15.968 83.5343 16.968 83.0383 17.816C82.5583 18.664 81.8143 19.312 80.8063 19.76C79.8143 20.208 78.5503 20.432 77.0143 20.432H73.7743V16.688H77.0143C77.7503 16.688 78.3183 16.528 78.7183 16.208C79.1183 15.888 79.3183 15.424 79.3183 14.816C79.3183 14.224 79.1183 13.768 78.7183 13.448C78.3183 13.128 77.7503 12.968 77.0143 12.968H73.7743Z" fill="url(#paint1_linear_106_587)"/>
<path d="M86.4351 7.28H87.6831V26H86.4351V7.28ZM91.6661 22.688C91.6661 23.232 91.7861 23.688 92.0261 24.056C92.2821 24.424 92.6181 24.704 93.0341 24.896C93.4661 25.072 93.9381 25.16 94.4501 25.16C95.0741 25.16 95.6421 25.016 96.1541 24.728C96.6821 24.44 97.1061 24.016 97.4261 23.456C97.7461 22.896 97.9061 22.208 97.9061 21.392L98.1941 22.448C98.1941 23.312 97.9861 24.024 97.5701 24.584C97.1541 25.144 96.6341 25.56 96.0101 25.832C95.3861 26.104 94.7541 26.24 94.1141 26.24C93.4901 26.24 92.8901 26.112 92.3141 25.856C91.7381 25.584 91.2741 25.192 90.9221 24.68C90.5701 24.168 90.3941 23.52 90.3941 22.736C90.3941 21.664 90.7621 20.816 91.4981 20.192C92.2501 19.568 93.2661 19.256 94.5461 19.256C95.2661 19.256 95.8821 19.344 96.3941 19.52C96.9221 19.68 97.3541 19.864 97.6901 20.072C98.0261 20.28 98.2661 20.456 98.4101 20.6V21.392C97.8661 21.008 97.2821 20.728 96.6581 20.552C96.0501 20.36 95.4101 20.264 94.7381 20.264C94.1141 20.264 93.5701 20.352 93.1061 20.528C92.6581 20.704 92.3061 20.968 92.0501 21.32C91.7941 21.672 91.6661 22.128 91.6661 22.688ZM91.7141 16.976L91.0901 16.04C91.5061 15.752 92.0421 15.464 92.6981 15.176C93.3701 14.872 94.1941 14.72 95.1701 14.72C96.0021 14.72 96.7141 14.856 97.3061 15.128C97.8981 15.4 98.3541 15.792 98.6741 16.304C98.9941 16.816 99.1541 17.44 99.1541 18.176V26H97.9061V18.344C97.9061 18.024 97.8581 17.72 97.7621 17.432C97.6661 17.128 97.5061 16.856 97.2821 16.616C97.0741 16.376 96.7861 16.184 96.4181 16.04C96.0501 15.896 95.6021 15.824 95.0741 15.824C94.5301 15.824 94.0421 15.888 93.6101 16.016C93.1781 16.144 92.8021 16.296 92.4821 16.472C92.1781 16.648 91.9221 16.816 91.7141 16.976ZM100.904 14.96H105.752V16.136H100.904V14.96ZM102.704 11.12H103.952V26H102.704V11.12ZM107.017 14.96H112.201V16.136H107.017V14.96ZM112.441 9.104C112.265 8.848 112.049 8.656 111.793 8.528C111.537 8.384 111.265 8.312 110.977 8.312C110.577 8.312 110.257 8.416 110.017 8.624C109.793 8.832 109.625 9.128 109.513 9.512C109.401 9.896 109.345 10.336 109.345 10.832V26H108.097V10.688C108.097 9.936 108.201 9.296 108.409 8.768C108.633 8.224 108.961 7.808 109.393 7.52C109.825 7.216 110.377 7.064 111.049 7.064C111.401 7.064 111.705 7.12 111.961 7.232C112.233 7.328 112.465 7.456 112.657 7.616C112.865 7.776 113.025 7.936 113.137 8.096L112.441 9.104ZM113.694 20.48C113.694 19.36 113.942 18.368 114.438 17.504C114.934 16.64 115.606 15.96 116.454 15.464C117.318 14.968 118.286 14.72 119.358 14.72C120.43 14.72 121.39 14.968 122.238 15.464C123.102 15.96 123.782 16.64 124.278 17.504C124.774 18.368 125.022 19.36 125.022 20.48C125.022 21.584 124.774 22.576 124.278 23.456C123.782 24.32 123.102 25 122.238 25.496C121.39 25.992 120.43 26.24 119.358 26.24C118.286 26.24 117.318 25.992 116.454 25.496C115.606 25 114.934 24.32 114.438 23.456C113.942 22.576 113.694 21.584 113.694 20.48ZM114.966 20.48C114.966 21.376 115.158 22.168 115.542 22.856C115.926 23.544 116.446 24.088 117.102 24.488C117.774 24.872 118.526 25.064 119.358 25.064C120.19 25.064 120.934 24.872 121.59 24.488C122.262 24.088 122.79 23.544 123.174 22.856C123.558 22.168 123.75 21.376 123.75 20.48C123.75 19.6 123.558 18.816 123.174 18.128C122.79 17.424 122.262 16.88 121.59 16.496C120.934 16.096 120.19 15.896 119.358 15.896C118.526 15.896 117.774 16.096 117.102 16.496C116.446 16.88 115.926 17.416 115.542 18.104C115.158 18.792 114.966 19.584 114.966 20.48ZM129.097 14.96V26H127.849V14.96H129.097ZM132.769 16.424C132.529 16.248 132.297 16.12 132.073 16.04C131.865 15.944 131.617 15.896 131.329 15.896C130.785 15.896 130.345 16.048 130.009 16.352C129.689 16.656 129.457 17.064 129.313 17.576C129.169 18.088 129.097 18.656 129.097 19.28H128.521C128.521 18.4 128.657 17.624 128.929 16.952C129.201 16.264 129.569 15.72 130.033 15.32C130.513 14.92 131.041 14.72 131.617 14.72C131.969 14.72 132.297 14.776 132.601 14.888C132.921 14.984 133.209 15.152 133.465 15.392L132.769 16.424ZM149.648 18.752V26H148.4V18.896C148.4 17.936 148.216 17.2 147.848 16.688C147.48 16.16 146.912 15.896 146.144 15.896C145.6 15.896 145.104 16.04 144.656 16.328C144.224 16.616 143.88 17.016 143.624 17.528C143.368 18.04 143.24 18.624 143.24 19.28V26H141.992V18.896C141.992 17.936 141.808 17.2 141.44 16.688C141.072 16.16 140.504 15.896 139.736 15.896C139.192 15.896 138.696 16.04 138.248 16.328C137.816 16.616 137.472 17.016 137.215 17.528C136.96 18.04 136.832 18.624 136.832 19.28V26H135.584V14.96H136.832V17.192C137.12 16.408 137.544 15.8 138.104 15.368C138.664 14.936 139.304 14.72 140.023 14.72C140.824 14.72 141.48 14.952 141.992 15.416C142.504 15.864 142.848 16.48 143.024 17.264C143.344 16.464 143.808 15.84 144.416 15.392C145.024 14.944 145.696 14.72 146.432 14.72C147.12 14.72 147.704 14.88 148.184 15.2C148.664 15.52 149.024 15.984 149.264 16.592C149.52 17.2 149.648 17.92 149.648 18.752Z" fill="#E4EDF1"/>
<defs>
<linearGradient id="paint0_linear_106_587" x1="-9.54077e-08" y1="4.53704" x2="32.3687" y2="6.97684" gradientUnits="userSpaceOnUse">
<stop stop-color="#2F7CFC"/>
<stop offset="0.203125" stop-color="#A241FE"/>
<stop offset="0.489583" stop-color="#FF16F5"/>
<stop offset="0.739583" stop-color="#FF4887"/>
<stop offset="0.973958" stop-color="#FF6E35"/>
</linearGradient>
<linearGradient id="paint1_linear_106_587" x1="36" y1="1.2963" x2="162.939" y2="33.0076" gradientUnits="userSpaceOnUse">
<stop stop-color="#2F7CFC"/>
<stop offset="0.203125" stop-color="#A241FE"/>
<stop offset="0.489583" stop-color="#FF16F5"/>
<stop offset="0.739583" stop-color="#FF4887"/>
<stop offset="0.973958" stop-color="#FF6E35"/>
</linearGradient>
</defs>
</svg>
